# xmcd
#
# Track frame offsets:
#	150
#	13615
#	24522
#	37220
#	52335
#	68870
#	85590
#	100322
#	111175
#	121197
#	132260
#	148112
#
# Disc length: 2154
#
# Revision: 2
# Processed by: cddbd v1.5.1PL0 Copyright (c) Steve Scherf et al.
# Submitted via: EasyCDDAExtractor 5.0.7
# Normalized: r1:DSETVAR1
#
DISCID=a908680c
DTITLE=Various Artist - Gentlemen Of Country Music
DYEAR=1900
DGENRE=Country
TTITLE0=Waylon Jennings - Amanda
TTITLE1=Willie Nelson - Nght Life
TTITLE2=Eddy Arnold - Then You Can Tell Me Goodbye
TTITLE3=Eddie Rabbit - The Wanderer
TTITLE4=Vince Gill - Oklahoma Borderline
TTITLE5=Keith Whitley - When You Say Nothing At All
TTITLE6=Don Williams - Back In My Younger Days
TTITLE7=Ronnie Milsap - Daydreams About Night Things
TTITLE8=Charley Pride - Is Anybody Going To San Antone
TTITLE9=Eddy Raven - I Got Mexico
TTITLE10=Aaron Tippin - Working Man's Ph.D.
TTITLE11=John Anderson - Money In The Bank
EXTD=Gentlemen Of Country Music - Country Countdown
EXTT0=
EXTT1=
EXTT2=
EXTT3=
EXTT4=
EXTT5=
EXTT6=
EXTT7=
EXTT8=
EXTT9=
EXTT10=
EXTT11=
PLAYORDER=
